<svg xmlns="http://www.w3.org/2000/svg" width="20" height="20" viewBox="0 0 20 20" fill="none">
    <mask id="g3h0jqku7a" style="mask-type:alpha" maskUnits="userSpaceOnUse" x="0" y="0" width="20" height="20">
        <path fill="#D9D9D9" d="M0 0h20v20H0z"/>
    </mask>
    <g mask="url(#g3h0jqku7a)">
        <path d="M10 14.022c-.15 0-.29-.024-.422-.07a.987.987 0 0 1-.365-.24l-4.05-4.05a1.03 1.03 0 0 1-.324-.787c.01-.3.117-.563.323-.787.226-.225.493-.343.802-.352.31-.01.577.098.802.323l2.109 2.11V2.125c0-.319.108-.586.323-.802C9.414 1.108 9.681 1 10 1c.319 0 .586.108.802.323.215.216.323.483.323.802v8.044l2.11-2.11c.224-.225.492-.332.8-.323.31.01.578.127.803.352.206.225.314.487.323.787.01.3-.098.563-.323.787l-4.05 4.05a.988.988 0 0 1-.366.24c-.131.046-.272.07-.422.07zM3.25 19c-.619 0-1.148-.22-1.59-.66-.44-.442-.66-.971-.66-1.59V14.5c0-.319.108-.586.323-.802.216-.215.483-.323.802-.323.319 0 .586.108.802.323.215.216.323.483.323.802v2.25h13.5V14.5c0-.319.108-.586.323-.802.216-.215.483-.323.802-.323.319 0 .586.108.802.323.215.216.323.483.323.802v2.25c0 .619-.22 1.148-.66 1.59-.442.44-.971.66-1.59.66H3.25z" fill="#000"/>
    </g>
</svg>